<?xml version="1.0" encoding="UTF-8"?> <svg xmlns="http://www.w3.org/2000/svg" width="107" height="100" viewBox="0 0 107 100" fill="none"><path fill-rule="evenodd" clip-rule="evenodd" d="M0 100H52.8193L75 76V8H0V100Z" fill="#BFDEFF"></path><path d="M15 28.2816H58.77" stroke="#3692FE" stroke-width="3"></path><path d="M15 42.2655H51.0586" stroke="#3692FE" stroke-width="3"></path><path d="M48.8717 42.2655H58.8603" stroke="#3692FE" stroke-width="3"></path><path d="M15 56.2495H29.8521" stroke="#3692FE" stroke-width="3"></path><path fill-rule="evenodd" clip-rule="evenodd" d="M75 76H53V100L75 76Z" fill="#3692FE"></path><rect width="75" height="8" fill="white"></rect><path d="M0 9L75 8.99999" stroke="#3692FE" stroke-width="3"></path><path d="M86.4804 45.7542L105 64.2738" stroke="#3692FE" stroke-width="3"></path><path d="M92.9693 27.2347C92.9693 41.4475 81.4475 52.9693 67.2347 52.9693C53.0218 52.9693 41.5 41.4475 41.5 27.2347C41.5 13.0218 53.0218 1.5 67.2347 1.5C81.4475 1.5 92.9693 13.0218 92.9693 27.2347Z" fill="white" stroke="#3692FE" stroke-width="3"></path><path d="M57.375 27.3929L63.9922 33.875L76.625 21.5" stroke="#3692FE" stroke-width="3"></path></svg> 