<?xml version="1.0" encoding="UTF-8"?> <svg xmlns="http://www.w3.org/2000/svg" width="81" height="104" viewBox="0 0 81 104" fill="none"><path d="M40.1786 4C25.1295 15.9417 15.6964 16.5 0 16.5V64.5625C0 83.7417 14.2991 88.7458 40.1786 104C66.058 88.7458 80.3571 83.7417 80.3571 64.5625V16.5C64.6607 16.5 55.2277 15.9417 40.1786 4Z" fill="#BFDEFF"></path><circle cx="31.25" cy="65.25" r="9.58333" fill="#BFDEFF"></circle><path d="M0 21.1155C15.6964 21.1155 25.1295 20.5571 40.1786 8.61548C55.2277 20.5571 64.6607 21.1155 80.3571 21.1155" stroke="white" stroke-width="12"></path><path d="M0 26.5C15.6964 26.5 25.1295 25.9417 40.1786 14C55.2277 25.9417 64.6607 26.5 80.3571 26.5" stroke="#3692FE" stroke-width="3"></path><path d="M40 37.5V76.5" stroke="#3692FE" stroke-width="3"></path><path d="M59.5 57L20.5 57" stroke="#3692FE" stroke-width="3"></path></svg> 