<?xml version="1.0" encoding="UTF-8"?> <svg xmlns="http://www.w3.org/2000/svg" width="117" height="100" viewBox="0 0 117 100" fill="none"><path d="M0.168437 19.3058C-0.664733 14.4271 1.64864 9.25887 5.87662 6.56636C7.92453 5.26218 10.4381 4.7915 12.8434 5.12226C19.8606 6.08723 22.776 12.6134 24.0984 19.3058H0.168437Z" fill="#3692FE"></path><path d="M75.3423 5.28084C81.6294 5.28083 86.9983 9.81876 88.0456 16.018L98.5324 78.0907L58.2248 78.0907C58.4932 79.1643 58.9495 82.1167 58.6274 85.3375C58.2248 89.3636 55.4066 95 46.9519 95C40.1882 95 36.0817 89.0952 34.8739 86.1428C32.1898 70.4413 26.1776 35.3344 23.601 20.5186C21.7921 10.1173 17.6285 6.27104 14.147 5.28092L10.3151 5.28093C11.3148 4.95496 12.6695 4.8607 14.147 5.28092L75.3423 5.28084Z" fill="#BFDEFF"></path><path d="M58.6274 85.3376C59.9157 82.1168 58.6274 79.4327 57.8222 78.4933L114.992 78.0907C116.065 79.1643 117.649 82.6804 115.394 88.1558C113.14 93.6312 107.745 94.7316 105.329 94.5974C86.8095 94.8658 50.1727 95.2416 51.7831 94.5974C53.7962 93.7922 57.017 89.3636 58.6274 85.3376Z" fill="white"></path><path d="M58.0179 78.1109L58.2625 79.0236C60.6011 87.7514 55.1608 94.0879 46.9519 95H104.121C115.797 95 118.347 83.7406 115.797 78.1109H58.0179Z" fill="white"></path><mask id="path-5-inside-1" fill="white"><path fill-rule="evenodd" clip-rule="evenodd" d="M84.7292 40.8965C84.7775 41.5102 84.8021 42.1305 84.8021 42.7565C84.8021 55.656 74.3451 66.113 61.4456 66.113C48.5462 66.113 38.0891 55.656 38.0891 42.7565C38.0891 29.8571 48.5462 19.4 61.4456 19.4C62.4412 19.4 63.4221 19.4623 64.3849 19.5832C63.9632 20.3784 63.7243 21.2855 63.7243 22.2484C63.7243 25.0311 65.7195 27.3478 68.3574 27.846C67.5962 28.8145 67.1423 30.0358 67.1423 31.3631C67.1423 34.5093 69.6928 37.0598 72.839 37.0598C74.1214 37.0598 75.3049 36.636 76.257 35.9209C76.2572 39.0669 78.8077 41.6172 81.9537 41.6172C82.9614 41.6172 83.9079 41.3556 84.7292 40.8965Z"></path></mask><path fill-rule="evenodd" clip-rule="evenodd" d="M84.7292 40.8965C84.7775 41.5102 84.8021 42.1305 84.8021 42.7565C84.8021 55.656 74.3451 66.113 61.4456 66.113C48.5462 66.113 38.0891 55.656 38.0891 42.7565C38.0891 29.8571 48.5462 19.4 61.4456 19.4C62.4412 19.4 63.4221 19.4623 64.3849 19.5832C63.9632 20.3784 63.7243 21.2855 63.7243 22.2484C63.7243 25.0311 65.7195 27.3478 68.3574 27.846C67.5962 28.8145 67.1423 30.0358 67.1423 31.3631C67.1423 34.5093 69.6928 37.0598 72.839 37.0598C74.1214 37.0598 75.3049 36.636 76.257 35.9209C76.2572 39.0669 78.8077 41.6172 81.9537 41.6172C82.9614 41.6172 83.9079 41.3556 84.7292 40.8965Z" fill="white"></path><path d="M84.7292 40.8965L87.7199 40.6609L87.3522 35.9936L83.2654 38.2778L84.7292 40.8965ZM64.3849 19.5832L67.0353 20.9887L69.072 17.1481L64.7586 16.6065L64.3849 19.5832ZM68.3574 27.846L70.7161 29.6997L73.7691 25.815L68.9141 24.8981L68.3574 27.846ZM76.257 35.9209L79.257 35.9207L79.2566 29.9157L74.4553 33.5222L76.257 35.9209ZM81.7384 41.1322C81.7806 41.6675 81.8021 42.2092 81.8021 42.7565H87.8021C87.8021 42.0518 87.7744 41.3528 87.7199 40.6609L81.7384 41.1322ZM81.8021 42.7565C81.8021 53.9991 72.6882 63.113 61.4456 63.113V69.113C76.0019 69.113 87.8021 57.3128 87.8021 42.7565H81.8021ZM61.4456 63.113C50.203 63.113 41.0891 53.9991 41.0891 42.7565H35.0891C35.0891 57.3128 46.8893 69.113 61.4456 69.113V63.113ZM41.0891 42.7565C41.0891 31.5139 50.203 22.4 61.4456 22.4V16.4C46.8893 16.4 35.0891 28.2002 35.0891 42.7565H41.0891ZM61.4456 22.4C62.3159 22.4 63.1721 22.4544 64.0111 22.5598L64.7586 16.6065C63.6722 16.4701 62.5664 16.4 61.4456 16.4V22.4ZM61.7345 18.1776C61.0888 19.3953 60.7243 20.7837 60.7243 22.2484H66.7243C66.7243 21.7873 66.8376 21.3615 67.0353 20.9887L61.7345 18.1776ZM60.7243 22.2484C60.7243 26.4998 63.7719 30.033 67.8006 30.7938L68.9141 24.8981C67.6671 24.6626 66.7243 23.5623 66.7243 22.2484H60.7243ZM65.9986 25.9922C64.8369 27.4705 64.1423 29.3398 64.1423 31.3631H70.1423C70.1423 30.7317 70.3556 30.1584 70.7161 29.6997L65.9986 25.9922ZM64.1423 31.3631C64.1423 36.1662 68.0359 40.0598 72.839 40.0598V34.0598C71.3496 34.0598 70.1423 32.8525 70.1423 31.3631H64.1423ZM72.839 40.0598C74.7934 40.0598 76.605 39.4116 78.0588 38.3196L74.4553 33.5222C74.0049 33.8605 73.4495 34.0598 72.839 34.0598V40.0598ZM73.257 35.9211C73.2574 40.7239 77.1509 44.6172 81.9537 44.6172V38.6172C80.4645 38.6172 79.2571 37.4099 79.257 35.9207L73.257 35.9211ZM81.9537 44.6172C83.4869 44.6172 84.9359 44.2178 86.1929 43.5152L83.2654 38.2778C82.88 38.4933 82.4359 38.6172 81.9537 38.6172V44.6172Z" fill="#3692FE" mask="url(#path-5-inside-1)"></path><circle cx="57.4579" cy="31.3631" r="2.27868" fill="#3692FE"></circle><circle cx="49.4825" cy="41.6172" r="2.27868" fill="#3692FE"></circle><circle cx="60.876" cy="44.4655" r="2.27868" fill="#3692FE"></circle><circle cx="58.5972" cy="53.5803" r="2.27868" fill="#3692FE"></circle><circle cx="72.2694" cy="46.7442" r="2.27868" fill="#3692FE"></circle></svg> 