<?xml version="1.0" encoding="UTF-8"?> <svg xmlns="http://www.w3.org/2000/svg" width="100" height="100" viewBox="0 0 100 100" fill="none"><path fill-rule="evenodd" clip-rule="evenodd" d="M13 0H65.8193L88 24V90H13V0Z" fill="white"></path><path fill-rule="evenodd" clip-rule="evenodd" d="M13 10H65.8193L88 34V90H13V10Z" fill="#BFDEFF"></path><path d="M25.9106 30.2816H49.6807" stroke="#3692FE" stroke-width="3"></path><path d="M25.9106 44.2655H59.9692" stroke="#3692FE" stroke-width="3"></path><path fill-rule="evenodd" clip-rule="evenodd" d="M88 34H66V10L88 34Z" fill="#3692FE"></path><path d="M55.8254 78V96.797L62.3041 92.1616L68.3359 96.797V78" stroke="#3692FE" stroke-width="3"></path><path fill-rule="evenodd" clip-rule="evenodd" d="M75.0464 72.2727L78.1843 67.8984L75.0093 63.5776L75.0538 58.15L70.0155 56.5796L66.9517 52.1762L61.9689 53.9576L56.9705 52.2582L53.9484 56.7154L48.9212 58.3641L49.0179 63.7917L45.88 68.1659L49.055 72.4867L49.0106 77.9144L54.0488 79.4848L57.1126 83.8881L62.0954 82.1068L67.0938 83.8062L70.1159 79.3489L75.1432 77.7003L75.0464 72.2727Z" fill="white" stroke="#3692FE" stroke-width="3"></path></svg> 