<?xml version="1.0" encoding="UTF-8"?> <svg xmlns="http://www.w3.org/2000/svg" width="75" height="100" viewBox="0 0 75 100" fill="none"><path fill-rule="evenodd" clip-rule="evenodd" d="M0 100H52.8193L75 76V8H0V100Z" fill="#BFDEFF"></path><path fill-rule="evenodd" clip-rule="evenodd" d="M75 76H53V100L75 76Z" fill="#3692FE"></path><rect width="75" height="8" fill="white"></rect><path d="M0 9L75 8.99999" stroke="#3692FE" stroke-width="3"></path><rect x="14.1213" y="40.6917" width="25.9022" height="14.3413" rx="4.5" transform="rotate(-45 14.1213 40.6917)" fill="white" stroke="#3692FE" stroke-width="3"></rect><rect x="-2.12132" width="25.9022" height="14.3413" rx="4.5" transform="matrix(-0.707107 -0.707107 -0.707107 0.707107 60.1239 39.1917)" fill="white" stroke="#3692FE" stroke-width="3"></rect><rect x="2.12132" width="25.9022" height="14.3413" rx="4.5" transform="matrix(0.707107 0.707107 0.707107 -0.707107 12.6213 50.063)" fill="white" stroke="#3692FE" stroke-width="3"></rect><rect x="14.1213" y="40.6917" width="25.9022" height="14.3413" rx="4.5" transform="rotate(-45 14.1213 40.6917)" stroke="#3692FE" stroke-width="3"></rect><rect x="61.6239" y="51.563" width="25.9022" height="14.3413" rx="4.5" transform="rotate(135 61.6239 51.563)" fill="white" stroke="#3692FE" stroke-width="3"></rect><rect x="-2.12132" width="25.9022" height="14.3413" rx="4.5" transform="matrix(-0.707107 -0.707107 -0.707107 0.707107 60.1239 39.1917)" stroke="#3692FE" stroke-width="3"></rect><rect x="2.12132" width="25.9022" height="14.3413" rx="4.5" transform="matrix(0.707107 0.707107 0.707107 -0.707107 12.6213 50.063)" stroke="#3692FE" stroke-width="3"></rect><rect x="61.6239" y="51.563" width="25.9022" height="14.3413" rx="4.5" transform="rotate(135 61.6239 51.563)" stroke="#3692FE" stroke-width="3"></rect></svg> 