<?xml version="1.0" encoding="UTF-8"?> <svg xmlns="http://www.w3.org/2000/svg" width="129" height="102" viewBox="0 0 129 102" fill="none"><path fill-rule="evenodd" clip-rule="evenodd" d="M102.43 43.3333L117.43 85.4167C114.235 87.7778 99.3464 92.5 65.3464 92.5C65.2872 92.5 65.2281 92.4999 65.1693 92.4997C65.1097 92.4999 65.0499 92.5 64.9899 92.5C30.9899 92.5 16.101 87.7778 12.9066 85.4167L27.9066 43.3334H59.5732C61.3742 45.1813 63.2702 47.2377 65.1681 49.4319C67.0661 47.2376 68.962 45.1813 70.763 43.3333H102.43Z" fill="#BFDEFF"></path><path d="M37.9064 69.1549C32.0729 44.5599 37.9064 38.4155 37.9064 38.4155C37.9064 38.4155 45.9346 32.5 64.3149 32.5C84.5965 32.5 90.7233 38.4155 90.7233 38.4155C90.7233 38.4155 96.0402 46.6432 90.7233 69.1549C85.4064 91.6667 64.2092 100 64.2092 100C64.2092 100 43.7399 93.75 37.9064 69.1549Z" fill="white"></path><path d="M37.9064 69.1549C32.0729 44.5599 37.9064 38.4155 37.9064 38.4155C37.9064 38.4155 45.9346 32.5 64.3149 32.5C84.5965 32.5 90.7233 38.4155 90.7233 38.4155C90.7233 38.4155 96.0402 46.6432 90.7233 69.1549C85.4064 91.6667 64.2092 100 64.2092 100C64.2092 100 43.7399 93.75 37.9064 69.1549Z" stroke="#3692FE" stroke-width="3"></path><path d="M64.5731 59.1667L60.4064 70.4167H67.4897L68.7397 67.9167" stroke="#3692FE" stroke-width="3"></path><path d="M43.8213 70C46.0396 73.1338 47.9066 79.4014 56.1804 79.4014C60.7438 79.4014 63.6452 75.8099 64.5255 74.0141C65.1945 75.8099 67.8002 79.4014 72.8706 79.4014C79.9899 79.4014 83.434 73.1338 85.5466 70" stroke="#3692FE" stroke-width="3" stroke-linejoin="bevel"></path><path d="M64.1036 89.0141V99.8944" stroke="#3692FE" stroke-width="3"></path><ellipse cx="64.5735" cy="43.9828" rx="62.5735" ry="17.6838" fill="#BFDEFF"></ellipse><path d="M32.8333 37.1814L40.7155 6.34804H88.0088L94.5 37.1814H32.8333Z" fill="#BFDEFF"></path><ellipse cx="64.5735" cy="6.80147" rx="23.5784" ry="6.80147" fill="white"></ellipse><path d="M127.147 43.9828C127.147 53.7493 99.1319 61.6666 64.5735 61.6666C30.0151 61.6666 2 53.7493 2 43.9828" stroke="#3692FE" stroke-width="3"></path><path d="M93.7399 27.5C93.7399 32.1024 80.6816 35.8333 64.5733 35.8333C48.4649 35.8333 35.4066 32.1024 35.4066 27.5" stroke="#3692FE" stroke-width="3"></path></svg> 