<svg width="31" height="43" viewBox="0 0 31 43" fill="none" xmlns="http://www.w3.org/2000/svg">
<path d="M16.2538 0.164506C19.275 2.5585 26.7482 9.98452 25.005 23.8292C25.005 23.8292 26.9523 22.6674 28.6835 20.5174C29.0834 20.0214 29.886 20.212 30.0214 20.8345C30.3225 22.2189 30.6871 24.436 30.7474 27.2404C30.9301 35.7134 24.2496 42.9851 15.7748 43C7.55705 43.0145 0.849731 36.2959 0.849731 28.0466C0.849731 20.8984 4.30998 17.1672 5.64244 11.0181C5.75211 10.5115 6.33391 10.2689 6.77951 10.534C7.79057 11.135 9.38922 12.2609 10.4351 13.8606C10.4351 13.8606 14.6882 8.47303 15.0212 0.743393C15.0481 0.118747 15.7639 -0.224082 16.2538 0.164506Z" fill="#FFA351"/>
<path d="M23.8757 27.9752C22.6823 29.7663 21.1697 30.1734 21.1697 30.1734C21.782 22.8251 18.9715 17.4328 17.8141 15.5585C17.6503 15.2931 17.2435 15.3632 17.1774 15.6682C16.1192 20.5775 13.2778 23.3038 13.2778 23.3038C12.3531 22.2255 11.4743 21.7839 11.017 21.6132C10.8373 21.5464 10.6452 21.6452 10.5783 21.825C9.41113 24.9551 7.20525 27.3716 6.70336 30.9699C5.96468 36.2645 9.8117 41.2827 15.1448 41.6531C20.524 42.0268 25.0037 37.7734 25.0037 32.4741C25.0037 30.3423 24.7204 28.878 24.5036 28.0703C24.4255 27.7787 24.0427 27.7242 23.8757 27.9752Z" fill="#FFD958"/>
<path d="M16.0237 27.159C15.9129 26.8805 15.5588 26.8038 15.3569 27.0254C14.1508 28.3498 10.9095 32.2263 10.9095 35.6397C10.9095 38.3416 13.1002 40.5323 15.8025 40.5323C18.5044 40.5323 20.6951 38.3416 20.6951 35.6397C20.6951 33.0706 17.5362 30.9643 16.0237 27.159Z" fill="white"/>
<path d="M15.6463 42.9929C14.0517 42.8734 0.337417 40.316 5.06621 23.062C6.83083 16.6241 7.13989 10.7568 7.13989 10.7568C7.01387 10.6769 6.89148 10.601 6.77854 10.5338C6.33293 10.2687 5.75114 10.5113 5.64146 11.0179C4.309 17.1667 0.848755 20.8982 0.848755 28.0464C0.848755 36.2525 7.4602 42.909 15.6463 42.9929Z" fill="#FF8C5A"/>
</svg>
