<svg width="20" height="20" viewBox="0 0 20 20" fill="none" xmlns="http://www.w3.org/2000/svg">
<path d="M14.6771 12.9104C15.6612 11.5664 16.2499 9.9156 16.2499 8.12596C16.2499 3.646 12.6049 0.000976562 8.12494 0.000976562C3.64498 0.000976562 0 3.646 0 8.12596C0 12.6059 3.64502 16.2509 8.12498 16.2509C9.91462 16.2509 11.5656 15.6622 12.9096 14.678L18.2324 20.0009L20 18.2333C20 18.2333 14.6771 12.9104 14.6771 12.9104ZM8.12498 13.7509C5.02318 13.7509 2.50001 11.2278 2.50001 8.12596C2.50001 5.02416 5.02318 2.50099 8.12498 2.50099C11.2268 2.50099 13.75 5.02416 13.75 8.12596C13.75 11.2278 11.2267 13.7509 8.12498 13.7509Z" fill="#373F5A"/>
</svg>
