<svg width="124" height="21" viewBox="0 0 124 21" fill="none" xmlns="http://www.w3.org/2000/svg">
<path d="M20.1408 7.697H12.4497L10.0741 0L7.69106 7.69699L0 7.68919L6.22857 12.451L3.84553 20.1402L10.0741 15.3862L16.2953 20.1402L13.9196 12.451L20.1408 7.69699V7.697Z" fill="white"/>
<path d="M14.4533 14.1922L13.9188 12.4514L10.0732 15.3866L14.4533 14.1922Z" fill="#197BBF"/>
<path d="M46.0324 7.697H38.3413L35.9657 0L33.5827 7.69699L25.8916 7.68919L32.1202 12.451L29.7371 20.1402L35.9657 15.3862L42.1869 20.1402L39.8112 12.451L46.0324 7.69699V7.697Z" fill="white"/>
<path d="M40.3478 14.1922L39.8133 12.4514L35.9678 15.3866L40.3478 14.1922Z" fill="#197BBF"/>
<path d="M71.9259 7.697H64.2349L61.8593 0L59.4762 7.69699L51.7852 7.68919L58.0137 12.451L55.6307 20.1402L61.8593 15.3862L68.0804 20.1402L65.7048 12.451L71.9259 7.69699V7.697Z" fill="white"/>
<path d="M66.2384 14.1922L65.7039 12.4514L61.8584 15.3866L66.2384 14.1922Z" fill="#197BBF"/>
<path d="M97.8195 7.697H90.1284L87.7528 0L85.3698 7.69699L77.6787 7.68919L83.9073 12.451L81.5242 20.1402L87.7528 15.3862L93.974 20.1402L91.5983 12.451L97.8195 7.69699V7.697Z" fill="white"/>
<path d="M92.133 14.1922L91.5985 12.4514L87.7529 15.3866L92.133 14.1922Z" fill="#197BBF"/>
<path d="M123.713 7.697H116.022L113.646 0L111.263 7.69699L103.572 7.68919L109.801 12.451L107.418 20.1402L113.646 15.3862L119.868 20.1402L117.492 12.451L123.713 7.69699V7.697Z" fill="white"/>
<path d="M118.026 14.1922L117.491 12.4514L113.646 15.3866L118.026 14.1922Z" fill="#197BBF"/>
</svg>
