<svg width="21" height="20" viewBox="0 0 21 20" fill="none" xmlns="http://www.w3.org/2000/svg">
<g clip-path="url(#clip0)">
<path d="M4.51953 0.5H16.3164C18.3019 0.5 19.918 2.1161 19.918 4.10156V15.8984C19.918 17.8839 18.3019 19.5 16.3164 19.5H4.51953C2.53407 19.5 0.917969 17.8839 0.917969 15.8984V4.10156C0.917969 2.1161 2.53407 0.5 4.51953 0.5Z" stroke="white"/>
<path d="M12.3573 4.82518C12.2897 4.57322 12.1282 4.3626 11.9023 4.23221C11.436 3.96299 10.8376 4.12326 10.5683 4.58967L10.418 4.84998L10.2677 4.58963C9.9984 4.12334 9.4 3.96299 8.93367 4.23217H8.93363C8.46731 4.50143 8.30699 5.09983 8.57621 5.56619L9.29031 6.80307L6.65539 11.3669H4.73438C4.1959 11.3669 3.75781 11.805 3.75781 12.3435C3.75781 12.882 4.1959 13.3201 4.73438 13.3201H12.1508L11.0231 11.3669H8.91066L12.2597 5.56623C12.3901 5.34033 12.4248 5.07713 12.3573 4.82518Z" fill="white"/>
<path d="M16.1016 11.3675H14.1806L11.9968 7.58496L10.8691 9.53808L14.2599 15.411C14.3904 15.637 14.6009 15.7986 14.8529 15.8661C14.9371 15.8887 15.0224 15.8998 15.1073 15.8998C15.2765 15.8998 15.4435 15.8555 15.594 15.7685C16.0604 15.4993 16.2207 14.9008 15.9514 14.4346L15.3082 13.3207H16.1016C16.6401 13.3207 17.0782 12.8826 17.0782 12.3441C17.0782 11.8056 16.6401 11.3675 16.1016 11.3675Z" fill="white"/>
<path d="M5.07661 14.1016L4.88454 14.4342C4.61532 14.9005 4.77567 15.499 5.242 15.7682C5.39539 15.8568 5.56305 15.8989 5.72864 15.8988C6.06637 15.8988 6.39532 15.7237 6.57602 15.4107L7.33188 14.1016H5.07661Z" fill="white"/>
</g>
<defs>
<clipPath id="clip0">
<rect width="20" height="20" fill="white" transform="translate(0.417969)"/>
</clipPath>
</defs>
</svg>
