<svg width="51" height="50" viewBox="0 0 51 50" fill="none" xmlns="http://www.w3.org/2000/svg">
<path d="M6.33301 24.9997C6.33301 35.5852 14.9141 44.1663 25.4997 44.1663C36.0852 44.1663 44.6663 35.5852 44.6663 24.9997C44.6663 14.4141 36.0852 5.83301 25.4997 5.83301C14.919 5.84481 6.34481 14.419 6.33301 24.9997ZM33.1014 15.372C28.1063 16.5821 22.8947 16.5821 17.8996 15.372C19.563 10.6662 22.3779 7.49967 25.4997 7.49967C28.6214 7.49967 31.438 10.6662 33.1014 15.372ZM25.4997 42.4997C22.3763 42.4997 19.5597 39.3332 17.8971 34.6237C22.8927 33.4095 28.1067 33.4095 33.1022 34.6237C31.4388 39.3332 28.6222 42.4997 25.4997 42.4997ZM16.3554 24.1663C16.4091 21.731 16.7598 19.3116 17.4003 16.9613C20.046 17.6433 22.7677 17.9867 25.4997 17.9831C28.2316 17.9847 30.953 17.6433 33.5999 16.9662C34.2395 19.3149 34.5903 21.7327 34.644 24.1663H16.3554ZM34.644 25.833C34.5903 28.2663 34.2395 30.6841 33.5999 33.0323C28.2788 31.7213 22.7197 31.7213 17.3987 33.0323C16.7594 30.6837 16.4091 28.2663 16.3554 25.833H34.644ZM14.6781 24.1663H8.04199C8.20313 20.693 9.40226 17.3483 11.4848 14.5639C12.8316 15.3626 14.2647 16.0059 15.7572 16.4804C15.0871 18.9893 14.7249 21.5703 14.6781 24.1663ZM14.6781 25.833C14.7245 28.4254 15.0863 31.0023 15.7556 33.5072C14.2635 33.9857 12.8308 34.6322 11.4848 35.4347C9.40226 32.6506 8.20313 29.3059 8.04199 25.833H14.6781ZM36.3212 25.833H42.9574C42.7962 29.3067 41.5971 32.6519 39.5138 35.4363C38.1673 34.6351 36.735 33.9881 35.2437 33.508C35.9131 31.0027 36.2748 28.4254 36.3212 25.833ZM36.3212 24.1663C36.2748 21.574 35.9131 18.9967 35.2437 16.4914C36.7367 16.0141 38.1702 15.3679 39.5162 14.5655C41.5979 17.3495 42.7962 20.6938 42.9574 24.1663H36.3212ZM20.0195 8.39119C18.3012 10.2556 17.0138 12.4744 16.248 14.8914C14.963 14.4797 13.7248 13.9344 12.5537 13.2638C14.5809 11.0234 17.1525 9.34497 20.0195 8.39119ZM12.5545 36.7339C13.7256 36.0637 14.9622 35.5164 16.2455 35.1006C17.0113 37.52 18.3 39.7417 20.0195 41.6082C17.1525 40.6544 14.5809 38.9755 12.5545 36.7339ZM30.9798 41.6082C32.6994 39.7417 33.988 37.52 34.7538 35.1006C36.0376 35.5156 37.2746 36.0633 38.4448 36.7347C36.4185 38.9759 33.8468 40.6544 30.9798 41.6082ZM38.4473 13.2679C37.2766 13.9401 36.0388 14.487 34.7538 14.8996C33.988 12.4797 32.6998 10.2576 30.9798 8.39119C33.8481 9.34538 36.4205 11.0255 38.4473 13.2679Z" fill="url(#paint0_linear)"/>
<path d="M1.33333 6.66667H4.66667V8.33333H2.16667V10H8.83333V8.33333H6.33333V6.66667H9.66667C10.1269 6.66667 10.5 6.29354 10.5 5.83333V0.833333C10.5 0.373128 10.1269 0 9.66667 0H1.33333C0.873128 0 0.5 0.373128 0.5 0.833333V5.83333C0.5 6.29354 0.873128 6.66667 1.33333 6.66667ZM2.16667 1.66667H8.83333V5H2.16667V1.66667Z" fill="url(#paint1_linear)"/>
<path d="M49.6667 0H41.3333C40.8731 0 40.5 0.373128 40.5 0.833333V5.83333C40.5 6.29354 40.8731 6.66667 41.3333 6.66667H44.6667V8.33333H42.1667V10H48.8333V8.33333H46.3333V6.66667H49.6667C50.1269 6.66667 50.5 6.29354 50.5 5.83333V0.833333C50.5 0.373128 50.1269 0 49.6667 0ZM48.8333 5H42.1667V1.66667H48.8333V5Z" fill="url(#paint2_linear)"/>
<path d="M9.66667 40H1.33333C0.873128 40 0.5 40.3731 0.5 40.8333V45.8333C0.5 46.2935 0.873128 46.6667 1.33333 46.6667H4.66667V48.3333H2.16667V50H8.83333V48.3333H6.33333V46.6667H9.66667C10.1269 46.6667 10.5 46.2935 10.5 45.8333V40.8333C10.5 40.3731 10.1269 40 9.66667 40ZM8.83333 45H2.16667V41.6667H8.83333V45Z" fill="url(#paint3_linear)"/>
<path d="M49.6667 40H41.3333C40.8731 40 40.5 40.3731 40.5 40.8333V45.8333C40.5 46.2935 40.8731 46.6667 41.3333 46.6667H44.6667V48.3333H42.1667V50H48.8333V48.3333H46.3333V46.6667H49.6667C50.1269 46.6667 50.5 46.2935 50.5 45.8333V40.8333C50.5 40.3731 50.1269 40 49.6667 40ZM48.8333 45H42.1667V41.6667H48.8333V45Z" fill="url(#paint4_linear)"/>
<path d="M6.03564 37.8737C0.875326 30.0657 0.875326 19.931 6.03564 12.1234L4.64648 11.207C-0.880859 19.5705 -0.880859 30.4266 4.64648 38.79L6.03564 37.8737Z" fill="url(#paint5_linear)"/>
<path d="M25.4998 48.3331C20.921 48.3404 16.4426 46.9944 12.6263 44.4639L11.71 45.853C20.0734 51.3804 30.9295 51.3804 39.293 45.853L38.3766 44.4639C34.5595 46.9948 30.0795 48.3412 25.4998 48.3331Z" fill="url(#paint6_linear)"/>
<path d="M44.9639 12.1263C50.1242 19.9343 50.1242 30.069 44.9639 37.8766L46.353 38.793C51.8804 30.4295 51.8804 19.5734 46.353 11.21L44.9639 12.1263Z" fill="url(#paint7_linear)"/>
<path d="M25.5002 1.66642C30.079 1.6591 34.5574 3.00513 38.3737 5.53564L39.29 4.14648C30.9266 -1.38086 20.0705 -1.38086 11.707 4.14648L12.6234 5.53564C16.4405 3.00472 20.9205 1.65828 25.5002 1.66642Z" fill="url(#paint8_linear)"/>
<defs>
<linearGradient id="paint0_linear" x1="6.33301" y1="44.1663" x2="47.9816" y2="40.1419" gradientUnits="userSpaceOnUse">
<stop stop-color="#1E7AE6"/>
<stop offset="1" stop-color="#2FA5F1"/>
</linearGradient>
<linearGradient id="paint1_linear" x1="0.5" y1="10" x2="11.3648" y2="8.95014" gradientUnits="userSpaceOnUse">
<stop stop-color="#1E7AE6"/>
<stop offset="1" stop-color="#2FA5F1"/>
</linearGradient>
<linearGradient id="paint2_linear" x1="40.5" y1="10" x2="51.3648" y2="8.95014" gradientUnits="userSpaceOnUse">
<stop stop-color="#1E7AE6"/>
<stop offset="1" stop-color="#2FA5F1"/>
</linearGradient>
<linearGradient id="paint3_linear" x1="0.5" y1="50" x2="11.3648" y2="48.9501" gradientUnits="userSpaceOnUse">
<stop stop-color="#1E7AE6"/>
<stop offset="1" stop-color="#2FA5F1"/>
</linearGradient>
<linearGradient id="paint4_linear" x1="40.5" y1="50" x2="51.3648" y2="48.9501" gradientUnits="userSpaceOnUse">
<stop stop-color="#1E7AE6"/>
<stop offset="1" stop-color="#2FA5F1"/>
</linearGradient>
<linearGradient id="paint5_linear" x1="0.500977" y1="38.79" x2="6.56818" y2="38.6724" gradientUnits="userSpaceOnUse">
<stop stop-color="#1E7AE6"/>
<stop offset="1" stop-color="#2FA5F1"/>
</linearGradient>
<linearGradient id="paint6_linear" x1="11.71" y1="49.9985" x2="36.264" y2="38.1741" gradientUnits="userSpaceOnUse">
<stop stop-color="#1E7AE6"/>
<stop offset="1" stop-color="#2FA5F1"/>
</linearGradient>
<linearGradient id="paint7_linear" x1="44.9639" y1="38.793" x2="51.0311" y2="38.6753" gradientUnits="userSpaceOnUse">
<stop stop-color="#1E7AE6"/>
<stop offset="1" stop-color="#2FA5F1"/>
</linearGradient>
<linearGradient id="paint8_linear" x1="11.707" y1="5.53564" x2="36.2611" y2="-6.28884" gradientUnits="userSpaceOnUse">
<stop stop-color="#1E7AE6"/>
<stop offset="1" stop-color="#2FA5F1"/>
</linearGradient>
</defs>
</svg>
