<svg width="59" height="50" viewBox="0 0 59 50" fill="none" xmlns="http://www.w3.org/2000/svg">
<path d="M57.1995 28.7686H54.835C54.2132 28.7686 53.709 28.2645 53.709 27.6426C53.709 27.0207 54.2132 26.5166 54.835 26.5166H57.1995C57.8213 26.5166 58.3255 27.0207 58.3255 27.6426C58.3255 28.2645 57.8213 28.7686 57.1995 28.7686Z" fill="url(#paint0_linear)"/>
<path d="M4.16535 28.7686H1.80079C1.17891 28.7686 0.674805 28.2645 0.674805 27.6426C0.674805 27.0207 1.17891 26.5166 1.80079 26.5166H4.16535C4.78712 26.5166 5.29133 27.0207 5.29133 27.6426C5.29133 28.2645 4.78712 28.7686 4.16535 28.7686Z" fill="url(#paint1_linear)"/>
<path d="M46.5791 11.6895C46.2908 11.6895 46.0028 11.5796 45.7829 11.3597C45.3432 10.92 45.3432 10.2071 45.7829 9.76737L47.4549 8.0954C47.8947 7.6557 48.6074 7.6557 49.0474 8.0954C49.4871 8.53509 49.4871 9.24806 49.0474 9.68787L47.3754 11.3598C47.1554 11.5796 46.8672 11.6895 46.5791 11.6895Z" fill="url(#paint2_linear)"/>
<path d="M12.421 11.6896C12.1327 11.6896 11.8447 11.5797 11.6248 11.3598L9.95282 9.68787C9.51312 9.24817 9.51312 8.5352 9.95282 8.0954C10.3926 7.6557 11.1054 7.6557 11.5453 8.0954L13.2173 9.76736C13.657 10.2071 13.657 10.92 13.2173 11.3597C12.9972 11.5797 12.7092 11.6896 12.421 11.6896Z" fill="url(#paint3_linear)"/>
<path d="M29.5 4.61652C28.8781 4.61652 28.374 4.11242 28.374 3.49054V1.12598C28.374 0.504102 28.8781 0 29.5 0C30.1218 0 30.626 0.504102 30.626 1.12598V3.49054C30.626 4.11242 30.1218 4.61652 29.5 4.61652Z" fill="url(#paint4_linear)"/>
<path d="M29.5002 34.869C29.1792 34.869 28.8736 34.7321 28.6599 34.4925L23.8531 29.1031C23.5192 28.7287 23.4732 28.1787 23.7403 27.7542L28.5472 20.1115C28.7532 19.7838 29.1132 19.585 29.5003 19.585C29.8874 19.585 30.2474 19.7838 30.4535 20.1115L35.2603 27.7542C35.5274 28.1788 35.4813 28.7288 35.1475 29.1031L30.3407 34.4925C30.1268 34.7321 29.8212 34.869 29.5002 34.869ZM26.0974 28.2362L29.5002 32.0515L32.9031 28.2362L29.5002 22.8259L26.0974 28.2362Z" fill="url(#paint5_linear)"/>
<path d="M22.3697 41.4313C21.9063 41.4313 21.4787 41.1349 21.3158 40.7014C21.1525 40.2671 21.2787 39.7652 21.6272 39.459C21.9956 39.1354 22.5471 39.09 22.9639 39.3488C23.3637 39.5971 23.5681 40.0837 23.4694 40.5429C23.3595 41.0545 22.8929 41.4313 22.3697 41.4313Z" fill="url(#paint6_linear)"/>
<path d="M53.5289 13.2274C53.1423 12.9788 52.6435 12.99 52.2687 13.2557L44.9094 18.4717L42.6839 13.4944C42.5494 13.1937 42.2899 12.9668 41.9737 12.8738C41.6574 12.7808 41.3167 12.831 41.0406 13.011L35.1625 16.847L30.4511 9.39437C30.2448 9.06795 29.8856 8.87012 29.4994 8.87012C29.1132 8.87012 28.754 9.06795 28.5477 9.39437L23.8363 16.847L17.9582 13.011C17.6822 12.8309 17.3414 12.7809 17.0251 12.8738C16.7089 12.9668 16.4495 13.1936 16.315 13.4944L14.0895 18.4717L6.73015 13.2557C6.35531 12.9899 5.85639 12.9788 5.46995 13.2274C5.0834 13.4761 4.88681 13.9347 4.97328 14.3861L9.74441 39.3087V39.309L10.3056 47.7285C10.3411 48.2624 10.7475 48.6974 11.2777 48.7694C17.3232 49.5896 23.4113 49.9996 29.4994 49.9996C35.5875 49.9996 41.6757 49.5896 47.7212 48.7694C48.2513 48.6974 48.6577 48.2624 48.6932 47.7285L49.2544 39.309C49.2544 39.3089 49.2544 39.3088 49.2544 39.3087L54.0256 14.3861C54.112 13.9347 53.9154 13.4761 53.5289 13.2274ZM41.1665 15.6179L43.0361 19.7993L38.8877 22.7396L36.366 18.7507L41.1665 15.6179ZM17.8323 15.6179L22.6328 18.7507L20.1111 22.7396L15.9628 19.7993L17.8323 15.6179ZM47.1734 38.2023L45.502 38.4044C39.547 39.1246 33.4866 39.4437 27.489 39.3534C27.4832 39.3534 27.4775 39.3533 27.4718 39.3533C26.8579 39.3533 26.3556 39.8462 26.3462 40.4622C26.3369 41.084 26.8333 41.5956 27.4552 41.6051C28.1297 41.6152 28.804 41.6203 29.4797 41.6203C34.9149 41.6203 40.3865 41.2914 45.7722 40.64L46.918 40.5015L46.5076 46.6583C35.2161 48.111 23.7826 48.111 12.4911 46.6583L12.0807 40.5015L13.2264 40.64C14.5116 40.7954 15.817 40.9342 17.1065 41.0527C17.7246 41.1105 18.2738 40.6537 18.3307 40.0344C18.3876 39.4151 17.9316 38.8671 17.3124 38.8102C16.0443 38.6938 14.7607 38.5572 13.4967 38.4044L11.8253 38.2023L7.71122 16.7112L19.7775 25.2634C20.0295 25.442 20.3436 25.5093 20.6471 25.4493C20.9501 25.3894 21.2152 25.2075 21.3803 24.9463L29.4994 12.1033L37.6185 24.9463C37.7836 25.2074 38.0487 25.3894 38.3518 25.4493C38.6549 25.5093 38.9692 25.442 39.2214 25.2634L51.2876 16.7112L47.1734 38.2023Z" fill="url(#paint7_linear)"/>
<defs>
<linearGradient id="paint0_linear" x1="53.709" y1="28.7686" x2="58.5804" y2="27.8036" gradientUnits="userSpaceOnUse">
<stop stop-color="#1E7AE6"/>
<stop offset="1" stop-color="#2FA5F1"/>
</linearGradient>
<linearGradient id="paint1_linear" x1="0.674805" y1="28.7686" x2="5.54627" y2="27.8036" gradientUnits="userSpaceOnUse">
<stop stop-color="#1E7AE6"/>
<stop offset="1" stop-color="#2FA5F1"/>
</linearGradient>
<linearGradient id="paint2_linear" x1="45.4531" y1="11.6895" x2="49.7165" y2="11.2776" gradientUnits="userSpaceOnUse">
<stop stop-color="#1E7AE6"/>
<stop offset="1" stop-color="#2FA5F1"/>
</linearGradient>
<linearGradient id="paint3_linear" x1="9.62305" y1="11.6896" x2="13.8864" y2="11.2777" gradientUnits="userSpaceOnUse">
<stop stop-color="#1E7AE6"/>
<stop offset="1" stop-color="#2FA5F1"/>
</linearGradient>
<linearGradient id="paint4_linear" x1="28.374" y1="4.61652" x2="30.8381" y2="4.50038" gradientUnits="userSpaceOnUse">
<stop stop-color="#1E7AE6"/>
<stop offset="1" stop-color="#2FA5F1"/>
</linearGradient>
<linearGradient id="paint5_linear" x1="23.5674" y1="34.869" x2="36.5069" y2="33.8983" gradientUnits="userSpaceOnUse">
<stop stop-color="#1E7AE6"/>
<stop offset="1" stop-color="#2FA5F1"/>
</linearGradient>
<linearGradient id="paint6_linear" x1="21.2451" y1="41.4313" x2="23.6885" y2="41.1953" gradientUnits="userSpaceOnUse">
<stop stop-color="#1E7AE6"/>
<stop offset="1" stop-color="#2FA5F1"/>
</linearGradient>
<linearGradient id="paint7_linear" x1="4.95312" y1="49.9996" x2="58.0827" y2="43.8718" gradientUnits="userSpaceOnUse">
<stop stop-color="#1E7AE6"/>
<stop offset="1" stop-color="#2FA5F1"/>
</linearGradient>
</defs>
</svg>
