<svg width="51" height="50" viewBox="0 0 51 50" fill="none" xmlns="http://www.w3.org/2000/svg">
<path d="M47.7732 2.72686C46.0148 0.968555 43.6769 0.000195313 41.1901 0.000195313L9.80996 0C4.67637 0.000292969 0.5 4.17676 0.500098 9.30996L0.5 40.6902C0.500098 45.8236 4.67656 50 9.81006 50H41.1901C46.3236 50 50.5 45.8236 50.5 40.6901V9.31006C50.5 6.82324 49.5316 4.48525 47.7732 2.72686ZM47.5703 40.6901C47.5703 44.2082 44.7082 47.0703 41.1901 47.0703H9.81006C6.29199 47.0703 3.42979 44.2081 3.42969 40.6901L3.42979 9.30986C3.42969 5.79199 6.29189 2.92988 9.81006 2.92969L41.1901 2.92988C42.8943 2.92988 44.4966 3.59346 45.7017 4.79844C46.9067 6.00352 47.5703 7.60576 47.5703 9.31006V40.6901Z" fill="url(#paint0_linear)"/>
<path d="M34.3017 21.2395C33.7297 20.6675 32.8022 20.6674 32.2301 21.2395L26.9647 26.5051L26.9646 10.8789C26.9646 10.0699 26.3087 9.41406 25.4998 9.41406C24.6908 9.41406 24.0349 10.0699 24.0349 10.8789L24.035 26.5054L18.7692 21.2396C18.1972 20.6676 17.2697 20.6676 16.6976 21.2396C16.1255 21.8117 16.1255 22.7392 16.6976 23.3112L24.464 31.0774C24.7387 31.3522 25.1113 31.5065 25.4998 31.5065C25.8882 31.5065 26.2609 31.3521 26.5356 31.0774L34.3018 23.311C34.8738 22.739 34.8738 21.8115 34.3017 21.2395Z" fill="url(#paint1_linear)"/>
<path d="M39.6211 37.6562H11.3789C10.5699 37.6562 9.91406 38.3121 9.91406 39.1211C9.91406 39.9301 10.5699 40.5859 11.3789 40.5859H39.6211C40.4301 40.5859 41.0859 39.9301 41.0859 39.1211C41.0859 38.312 40.4301 37.6562 39.6211 37.6562Z" fill="url(#paint2_linear)"/>
<defs>
<linearGradient id="paint0_linear" x1="0.5" y1="50" x2="54.8242" y2="44.7507" gradientUnits="userSpaceOnUse">
<stop stop-color="#1E7AE6"/>
<stop offset="1" stop-color="#2FA5F1"/>
</linearGradient>
<linearGradient id="paint1_linear" x1="16.2686" y1="31.5065" x2="36.3836" y2="29.8822" gradientUnits="userSpaceOnUse">
<stop stop-color="#1E7AE6"/>
<stop offset="1" stop-color="#2FA5F1"/>
</linearGradient>
<linearGradient id="paint2_linear" x1="9.91406" y1="40.5859" x2="26.5319" y2="23.5005" gradientUnits="userSpaceOnUse">
<stop stop-color="#1E7AE6"/>
<stop offset="1" stop-color="#2FA5F1"/>
</linearGradient>
</defs>
</svg>
