<svg width="18" height="20" viewBox="0 0 18 20" fill="none" xmlns="http://www.w3.org/2000/svg">
<path d="M2.72578 18.9641L2.72574 18.9642C2.39756 19.1537 2.02557 19.2073 1.6726 19.1257L10.0307 10.7676L12.5532 13.2904L4.06754 18.1895L2.72578 18.9641ZM9.26289 9.99966L0.76685 18.4957C0.615734 18.2644 0.532227 17.9904 0.532227 17.6977V2.30178C0.532227 2.00917 0.615702 1.73516 0.76676 1.50388L3.30826 4.04537L3.30826 4.04538L9.26289 9.99966ZM2.72586 1.03537L12.5534 6.70921L10.0308 9.23184L4.07608 3.27755L4.07608 3.27754L1.67245 0.873886C2.02549 0.792219 2.39755 0.845763 2.72582 1.03535L2.72586 1.03537ZM16.0593 11.2662L13.5269 12.7283L10.7986 9.99971L13.527 7.27129L16.0594 8.73332C16.0594 8.73332 16.0594 8.73333 16.0594 8.73333C16.5181 8.99818 16.7904 9.46998 16.7904 9.99974C16.7904 10.5295 16.518 11.0013 16.0593 11.2662Z" fill="white" stroke="#2387E9" stroke-width="0.5"/>
</svg>
