<svg width="20" height="18" viewBox="0 0 20 18" fill="none" xmlns="http://www.w3.org/2000/svg">
<path d="M8.43387 16.8137L8.4339 16.8139L8.44592 16.811C13.1661 15.6926 15.441 12.8878 16.5127 10.303C17.5126 7.89161 17.4601 5.69117 17.4389 5.26612C17.9445 4.79941 18.3202 4.42236 18.6002 4.12173C18.7491 3.96182 18.777 3.7237 18.6689 3.53374C18.5609 3.34378 18.342 3.246 18.1284 3.29227C17.9176 3.33795 17.7171 3.3707 17.552 3.39359C17.8772 3.11248 18.123 2.85457 18.3089 2.62316C18.4513 2.44595 18.4562 2.195 18.3208 2.01236C18.1855 1.82971 17.944 1.76133 17.733 1.84592C17.0968 2.101 16.5309 2.15092 16.1719 2.15064C15.42 1.39408 14.4214 0.975586 13.3591 0.975586C11.1482 0.975586 9.36362 2.80015 9.36362 5.02746C9.36362 5.31759 9.39444 5.60739 9.45494 5.89088C7.72611 5.9526 6.12764 5.33848 4.80952 4.54899C3.45647 3.73858 2.43224 2.76311 1.9154 2.22085C1.79869 2.0984 1.62798 2.04327 1.46169 2.07432C1.2954 2.10537 1.15609 2.21839 1.09143 2.37471C0.524873 3.74442 0.84656 4.96137 1.30042 5.81727C1.60302 6.38793 1.97154 6.81436 2.20061 7.05003C1.98687 7.03289 1.76559 6.96628 1.55972 6.87623C1.39472 6.80406 1.20366 6.82619 1.05953 6.93417C0.915405 7.04216 0.840486 7.21931 0.863399 7.39794C1.13642 9.5264 2.703 10.3504 3.46603 10.6289C3.29123 10.6532 3.10072 10.6568 2.91388 10.6462C2.73716 10.6362 2.5683 10.7203 2.4699 10.8674C2.3715 11.0146 2.35822 11.2028 2.43498 11.3622C2.95736 12.4476 3.79535 12.9984 4.4962 13.271C4.84457 13.4065 5.16119 13.4745 5.39454 13.508C5.44486 13.5153 5.4917 13.5209 5.53455 13.5254C4.35869 14.6992 2.7385 15.0022 1.5309 15.0357C1.30134 15.042 1.10564 15.204 1.05639 15.4283C1.00715 15.6526 1.11703 15.8816 1.3228 15.9835C4.61897 17.6165 8.38206 16.8247 8.43387 16.8137ZM17.3962 5.30549L17.3963 5.30539L17.3962 5.30549ZM16.2077 2.18712C16.2077 2.18715 16.2078 2.18717 16.2078 2.18719L16.2077 2.18712Z" stroke="white" stroke-linecap="round" stroke-linejoin="round"/>
</svg>
