<svg width="67" height="68" viewBox="0 0 67 68" fill="none" xmlns="http://www.w3.org/2000/svg">
<path d="M35.4018 37.7598C38.6414 37.7598 41.8083 36.7992 44.502 34.9993C47.1956 33.1995 49.2951 30.6413 50.5348 27.6482C51.7746 24.6552 52.099 21.3618 51.4669 18.1844C50.8349 15.007 49.2749 12.0883 46.9841 9.79757C44.6933 7.5068 41.7747 5.94677 38.5973 5.31474C35.4199 4.68272 32.1265 5.0071 29.1334 6.24685C26.1404 7.48661 23.5822 9.58607 21.7824 12.2797C19.9825 14.9734 19.0219 18.1403 19.0219 21.3799C19.0267 25.7226 20.7541 29.8861 23.8248 32.9569C26.8956 36.0276 31.059 37.7549 35.4018 37.7598ZM35.4018 8.17031C38.0144 8.17031 40.5683 8.94504 42.7406 10.3965C44.9129 11.848 46.606 13.9111 47.6059 16.3248C48.6057 18.7386 48.8672 21.3946 48.3576 23.957C47.8479 26.5194 46.5898 28.8731 44.7424 30.7205C42.895 32.5679 40.5412 33.826 37.9788 34.3357C35.4164 34.8454 32.7604 34.5838 30.3467 33.584C27.9329 32.5842 25.8699 30.8911 24.4184 28.7188C22.9669 26.5465 22.1922 23.9925 22.1922 21.3799C22.1961 17.8777 23.5891 14.5201 26.0655 12.0437C28.542 9.56726 31.8996 8.17426 35.4018 8.17031Z" fill="#FDA13F"/>
<path d="M55.1324 47.4382C54.5953 47.1695 49.8014 44.8957 46.9621 47.7351C46.8648 47.8323 46.7677 47.934 46.6715 48.0389C44.1274 47.3617 42.0051 47.7305 40.6215 49.1134C38.9343 50.8005 37.3203 53.5793 36.5277 55.0461L33.6216 55.6273L25.8424 50.4411H31.1747C34.3619 50.4411 36.8358 49.004 38.1405 46.3946C38.7351 45.1853 39.0625 43.8623 39.1004 42.5153C39.1004 42.0949 38.9334 41.6917 38.6362 41.3945C38.3389 41.0972 37.9357 40.9302 37.5153 40.9302H1.58515C1.16474 40.9302 0.761554 41.0972 0.464281 41.3945C0.167007 41.6917 0 42.0949 0 42.5153C0 42.9357 0.167007 43.3389 0.464281 43.6362C0.761554 43.9335 1.16474 44.1005 1.58515 44.1005H35.6527C35.5529 44.4307 35.4229 44.7509 35.2644 45.0573C34.4851 46.5468 33.1475 47.2708 31.1747 47.2708H20.607C19.085 47.2215 18.4345 49.3722 19.7278 50.1748L32.409 58.6289C32.5822 58.7444 32.7764 58.8247 32.9807 58.8651C33.1849 58.9055 33.395 58.9053 33.5992 58.8645L44.1669 56.7509C44.4035 56.7035 44.6262 56.6028 44.818 56.4562C45.0097 56.3097 45.1655 56.1214 45.2734 55.9055C45.2909 55.8708 46.7978 52.8788 48.4377 50.8407C48.4445 50.832 48.4518 50.8235 48.4585 50.8143C48.6922 50.5221 48.941 50.2423 49.2038 49.976C49.8387 49.3413 51.113 49.4393 52.2149 49.7276L46.9912 60.1766L31.1529 64.136L12.4963 59.9898C12.3835 59.9647 12.2684 59.9521 12.1528 59.952H1.58515C1.16474 59.952 0.761554 60.119 0.464281 60.4163C0.167007 60.7136 0 61.1168 0 61.5372C0 61.9576 0.167007 62.3608 0.464281 62.658C0.761554 62.9553 1.16474 63.1223 1.58515 63.1223H11.9789L30.8312 67.3116C31.0715 67.365 31.3208 67.3618 31.5596 67.3021L48.4679 63.075C48.6898 63.0196 48.897 62.9168 49.0753 62.7737C49.2537 62.6306 49.399 62.4507 49.5013 62.2461L55.8419 49.5649C56.0274 49.1884 56.0569 48.7539 55.9241 48.3558C55.7913 47.9576 55.5068 47.6279 55.1324 47.4382ZM42.8019 53.7908L40.6909 54.2135C41.3984 53.1055 42.1641 52.0543 42.8632 51.3552C43.2595 50.9589 43.8803 50.8557 44.5156 50.8857C43.7766 52.0229 43.166 53.1123 42.8019 53.7908Z" fill="#113355"/>
<path d="M66.1121 28.7133C65.8148 28.416 65.4116 28.249 64.9912 28.249C64.5708 28.249 64.1677 28.416 63.8704 28.7133L62.3493 30.2342V23.4935C62.3493 23.0731 62.1823 22.6699 61.885 22.3726C61.5878 22.0753 61.1846 21.9083 60.7642 21.9083C60.3437 21.9083 59.9406 22.0753 59.6433 22.3726C59.346 22.6699 59.179 23.0731 59.179 23.4935V30.2342L57.6579 28.7133C57.3598 28.42 56.9579 28.2564 56.5398 28.2581C56.1216 28.2598 55.721 28.4267 55.4253 28.7223C55.1296 29.018 54.9628 29.4186 54.9611 29.8368C54.9594 30.2549 55.123 30.6568 55.4162 30.9549L59.6433 35.182C59.9406 35.4793 60.3438 35.6462 60.7642 35.6462C61.1845 35.6462 61.5877 35.4793 61.885 35.182L66.1121 30.9549C66.4093 30.6577 66.5763 30.2545 66.5763 29.8341C66.5763 29.4137 66.4093 29.0105 66.1121 28.7133Z" fill="#41C47A"/>
<path d="M60.7642 18.7381C61.1846 18.7381 61.5878 18.5711 61.8851 18.2738C62.1824 17.9765 62.3494 17.5733 62.3494 17.1529V15.0394C62.3494 14.619 62.1824 14.2158 61.8851 13.9185C61.5878 13.6212 61.1846 13.4542 60.7642 13.4542C60.3438 13.4542 59.9406 13.6212 59.6434 13.9185C59.3461 14.2158 59.1791 14.619 59.1791 15.0394V17.1529C59.1791 17.5733 59.3461 17.9765 59.6434 18.2738C59.9406 18.5711 60.3438 18.7381 60.7642 18.7381Z" fill="#41C47A"/>
<path d="M8.91847 35.182C9.21574 35.4793 9.61892 35.6462 10.0393 35.6462C10.4597 35.6462 10.8629 35.4793 11.1601 35.182L15.3872 30.9549C15.6805 30.6568 15.8441 30.2549 15.8424 29.8368C15.8407 29.4186 15.6738 29.018 15.3781 28.7223C15.0824 28.4267 14.6819 28.2598 14.2637 28.2581C13.8455 28.2564 13.4436 28.42 13.1455 28.7133L11.6245 30.2342V23.4935C11.6245 23.0731 11.4575 22.6699 11.1602 22.3726C10.8629 22.0753 10.4597 21.9083 10.0393 21.9083C9.6189 21.9083 9.21571 22.0753 8.91843 22.3726C8.62116 22.6699 8.45415 23.0731 8.45415 23.4935V30.2342L6.93307 28.7133C6.63498 28.42 6.23307 28.2564 5.8149 28.2581C5.39674 28.2598 4.99618 28.4267 4.70049 28.7223C4.40479 29.018 4.23792 29.4186 4.23622 29.8368C4.23452 30.2549 4.39812 30.6568 4.6914 30.9549L8.91847 35.182Z" fill="#41C47A"/>
<path d="M10.0394 18.7381C10.4598 18.7381 10.863 18.5711 11.1602 18.2738C11.4575 17.9765 11.6245 17.5733 11.6245 17.1529V15.0394C11.6245 14.619 11.4575 14.2158 11.1602 13.9185C10.863 13.6212 10.4598 13.4542 10.0394 13.4542C9.61897 13.4542 9.21578 13.6212 8.9185 13.9185C8.62123 14.2158 8.45422 14.619 8.45422 15.0394V17.1529C8.45422 17.5733 8.62123 17.9765 8.9185 18.2738C9.21578 18.5711 9.61897 18.7381 10.0394 18.7381Z" fill="#41C47A"/>
<path d="M37.04 28H34.5V18.209L31.4678 19.1494V17.084L36.7676 15.1855H37.04V28Z" fill="#FDA13F"/>
<circle cx="47" cy="10" r="8" fill="#EAF6FF" stroke="#FDA13F" stroke-width="2"/>
<path d="M43.5273 7.10938C43.5273 6.58203 43.6992 6.15625 44.043 5.83203C44.3867 5.50781 44.8477 5.3457 45.4258 5.3457C46.0117 5.3457 46.4746 5.50781 46.8145 5.83203C47.1543 6.15234 47.3242 6.58789 47.3242 7.13867V7.56055C47.3242 8.08789 47.1543 8.51172 46.8145 8.83203C46.4746 9.15234 46.0156 9.3125 45.4375 9.3125C44.8633 9.3125 44.4004 9.1543 44.0488 8.83789C43.7012 8.51758 43.5273 8.08008 43.5273 7.52539V7.10938ZM44.7988 7.56055C44.7988 7.76367 44.8555 7.92969 44.9688 8.05859C45.082 8.18359 45.2383 8.24609 45.4375 8.24609C45.8477 8.24609 46.0527 7.98438 46.0527 7.46094V7.10938C46.0527 6.90625 45.998 6.74023 45.8887 6.61133C45.7793 6.47852 45.625 6.41211 45.4258 6.41211C45.2344 6.41211 45.082 6.47656 44.9688 6.60547C44.8555 6.73047 44.7988 6.90234 44.7988 7.12109V7.56055ZM47.582 11.9082C47.582 11.377 47.7539 10.9512 48.0977 10.6309C48.4453 10.3105 48.9062 10.1504 49.4805 10.1504C50.0625 10.1504 50.5254 10.3086 50.8691 10.625C51.2129 10.9414 51.3848 11.3828 51.3848 11.9492V12.3594C51.3848 12.8906 51.2148 13.3164 50.875 13.6367C50.5352 13.957 50.0742 14.1172 49.4922 14.1172C48.918 14.1172 48.4551 13.959 48.1035 13.6426C47.7559 13.3223 47.582 12.8848 47.582 12.3301V11.9082ZM48.8477 12.3594C48.8477 12.543 48.9102 12.7051 49.0352 12.8457C49.1602 12.9824 49.3125 13.0508 49.4922 13.0508C49.8711 13.0508 50.0762 12.8711 50.1074 12.5117L50.1133 11.9082C50.1133 11.7012 50.0566 11.5352 49.9434 11.4102C49.8301 11.2812 49.6758 11.2168 49.4805 11.2168C49.293 11.2168 49.1426 11.2773 49.0293 11.3984C48.916 11.5156 48.8555 11.6758 48.8477 11.8789V12.3594ZM45.8125 13.3613L44.8926 12.8984L49.0586 6.23047L49.9785 6.69336L45.8125 13.3613Z" fill="#FDA13F"/>
</svg>
