<svg width="18" height="15" viewBox="0 0 18 15" fill="none" xmlns="http://www.w3.org/2000/svg">
<path d="M17.1707 4.24039L13.7311 0.800738C13.5054 0.575047 13.1425 0.575047 12.9169 0.800738L9.48006 4.24039C9.25437 4.46608 9.25437 4.8289 9.48006 5.05459C9.70575 5.28028 10.0686 5.28028 10.2943 5.05459L12.7426 2.60627V12.6852C12.7426 13.0081 13.0026 13.268 13.3254 13.268C13.6482 13.268 13.9082 13.0081 13.9082 12.6852V2.60627L16.3565 5.05459C16.5822 5.28028 16.945 5.28028 17.1707 5.05459C17.3964 4.83175 17.3964 4.46608 17.1707 4.24039Z" fill="#3692FE"/>
<path d="M8.49126 10.2083C8.26556 9.98262 7.90274 9.98262 7.67705 10.2083L5.22873 12.6566V2.57767C5.22873 2.25485 4.96876 1.99487 4.64594 1.99487C4.32311 1.99487 4.06314 2.25485 4.06314 2.57767V12.6566L1.61482 10.2083C1.38913 9.98262 1.02631 9.98262 0.800616 10.2083C0.574925 10.434 0.574925 10.7968 0.800616 11.0225L4.24026 14.4622C4.46595 14.6879 4.82877 14.6879 5.05447 14.4622L8.49411 11.0225C8.71695 10.7968 8.71695 10.4311 8.49126 10.2083Z" fill="#3692FE"/>
</svg>
