<svg width="15" height="16" viewBox="0 0 15 16" fill="none" xmlns="http://www.w3.org/2000/svg">
<path fill-rule="evenodd" clip-rule="evenodd" d="M2.43186 1.19248C1.70618 1.19248 1.1179 1.81998 1.1179 2.59404V13.406C1.1179 14.1801 1.70618 14.8076 2.43186 14.8076H12.5681C13.2938 14.8076 13.8821 14.1801 13.8821 13.406V9.0323C13.8821 8.77428 14.0782 8.56511 14.3201 8.56511C14.562 8.56511 14.7581 8.77428 14.7581 9.0323V13.406C14.7581 14.6961 13.7776 15.742 12.5681 15.742H2.43186C1.22239 15.742 0.241926 14.6961 0.241926 13.406V2.59404C0.241926 1.30394 1.22239 0.258106 2.43186 0.258106H6.53225C6.77414 0.258106 6.97023 0.467273 6.97023 0.725292C6.97023 0.983312 6.77414 1.19248 6.53225 1.19248H2.43186ZM14.0363 0.525152C14.2781 0.529989 14.4705 0.743039 14.466 1.00101L14.3921 5.20495C14.3876 5.46292 14.1878 5.66813 13.946 5.66329C13.7041 5.65846 13.5117 5.4454 13.5163 5.18743L13.5703 2.11119L5.69993 9.56082C5.52571 9.73981 5.24844 9.73426 5.08064 9.54843C4.91283 9.36259 4.91803 9.06684 5.09225 8.88785L12.9627 1.43821L10.0787 1.38054C9.83683 1.3757 9.64445 1.16265 9.64898 0.904673C9.65352 0.646699 9.85325 0.441491 10.0951 0.446328L14.0363 0.525152Z" fill="#3692FE"/>
<path fill-rule="evenodd" clip-rule="evenodd" d="M4.93168 8.69478L12.3387 1.6838L10.0742 1.63851C9.69871 1.631 9.40006 1.30027 9.4071 0.899793C9.41414 0.499319 9.7242 0.180758 10.0996 0.188267L14.0408 0.267091C14.4163 0.2746 14.7149 0.605335 14.7079 1.00581L14.634 5.20974C14.627 5.61022 14.3169 5.92878 13.9414 5.92127C13.566 5.91376 13.2673 5.58303 13.2744 5.18255L13.3181 2.69492L5.86382 9.75068C5.59313 10.0244 5.16563 10.0145 4.90639 9.72741C4.64589 9.43893 4.65396 8.9798 4.92442 8.70193L4.93168 8.69478ZM5.69993 9.56082L13.5703 2.11119L13.5163 5.18743C13.5117 5.4454 13.7041 5.65846 13.946 5.66329C14.1878 5.66813 14.3876 5.46292 14.3921 5.20495L14.466 1.00101C14.4705 0.743039 14.2781 0.529989 14.0363 0.525152L10.0951 0.446328C9.85325 0.441491 9.65352 0.646699 9.64898 0.904673C9.64445 1.16265 9.83683 1.3757 10.0787 1.38054L12.9627 1.43821L5.09225 8.88785C4.91803 9.06684 4.91283 9.36259 5.08064 9.54843C5.24844 9.73426 5.52571 9.73981 5.69993 9.56082ZM2.43187 1.4505C1.83981 1.4505 1.35984 1.96246 1.35984 2.59399V13.406C1.35984 14.0375 1.83981 14.5495 2.43187 14.5495H12.5681C13.1602 14.5495 13.6402 14.0375 13.6402 13.406V9.03226C13.6402 8.63171 13.9446 8.30701 14.3201 8.30701C14.6956 8.30701 15 8.63171 15 9.03226V13.406C15 14.8386 13.9112 16 12.5681 16H2.43187C1.08878 16 0 14.8386 0 13.406V2.59399C0 1.16137 1.08878 0 2.43187 0H6.53226C6.90777 0 7.21218 0.324706 7.21218 0.72525C7.21218 1.12579 6.90777 1.4505 6.53226 1.4505H2.43187ZM1.1179 2.59404C1.1179 1.81998 1.70618 1.19248 2.43186 1.19248H6.53225C6.77414 1.19248 6.97023 0.983312 6.97023 0.725292C6.97023 0.467273 6.77414 0.258106 6.53225 0.258106H2.43186C1.22239 0.258106 0.241926 1.30394 0.241926 2.59404V13.406C0.241926 14.6961 1.22239 15.742 2.43186 15.742H12.5681C13.7776 15.742 14.7581 14.6961 14.7581 13.406V9.0323C14.7581 8.77428 14.562 8.56511 14.3201 8.56511C14.0782 8.56511 13.8821 8.77428 13.8821 9.0323V13.406C13.8821 14.1801 13.2938 14.8076 12.5681 14.8076H2.43186C1.70618 14.8076 1.1179 14.1801 1.1179 13.406V2.59404Z" fill="#3692FE"/>
</svg>
